<svg width="285" height="200" viewBox="0 0 285 200" fill="none" xmlns="http://www.w3.org/2000/svg">
<path fill-rule="evenodd" clip-rule="evenodd" d="M128.063 1.05254C89.417 6.739 58.8339 32.4708 46.8329 69.3969C46.0116 71.9239 45.0697 74.83 44.74 75.8546C43.1325 80.8496 49.195 80.3551 51.741 75.2837C78.03 22.926 158.971 30.1091 173.163 86.0599C175.882 96.7752 187.141 95.5289 87.6349 95.5289C8.87943 95.5289 0.654008 95.6145 0.338131 96.4375C-0.11271 97.6132 -0.11271 102.634 0.338131 103.81C0.631035 104.574 1.88707 104.719 8.23504 104.727C28.1938 104.751 41.2981 114.376 47.7121 133.722C63.433 181.138 117.403 209.792 166.738 196.915C201.685 187.792 232.744 156.094 238.645 123.528C239.435 119.167 233.723 120.434 231.527 125.107C214.705 160.906 164.039 172.173 132.334 147.165C119.088 136.718 108.538 118.219 108.536 105.438C108.536 104.87 126.547 104.692 195.689 104.576C277.227 104.44 315.759 95.6151 255.85 93.2316C235.56 92.4247 243.646 87.1374 235.722 66.7446C217.898 20.8785 174.265 -5.74582 128.063 1.05254Z" fill="#E9F893"/>
</svg>
